<svg width="33" height="35" viewBox="0 0 33 35" fill="none" xmlns="http://www.w3.org/2000/svg">
    <path d="M16.4975 13.7882C14.4571 17.3224 9.93798 18.5333 6.40383 16.4928C2.86969 14.4524 1.6588 9.93328 3.69924 6.39914C5.73968 2.86499 10.2588 1.6541 13.7929 3.69454C17.3271 5.73498 18.538 10.2541 16.4975 13.7882Z" fill="#DDDC86"/>
    <path d="M29.2958 21.1774C27.2554 24.7115 22.7363 25.9224 19.2021 23.882C15.668 21.8415 14.4571 17.3224 16.4975 13.7883C18.538 10.2542 23.0571 9.04326 26.5912 11.0837C30.1253 13.1241 31.3362 17.6432 29.2958 21.1774Z" fill="#DDDC86"/>
    <path d="M16.4928 28.5746C14.4524 32.1087 9.93328 33.3196 6.39913 31.2792C2.86499 29.2388 1.6541 24.7197 3.69454 21.1855C5.73498 17.6514 10.2541 16.4405 13.7882 18.4809C17.3224 20.5214 18.5333 25.0405 16.4928 28.5746Z" fill="#DDDC86"/>
</svg>
